<?xml version="1.0" standalone="no"?><!DOCTYPE svg PUBLIC "-//W3C//DTD SVG 1.1//EN" "http://www.w3.org/Graphics/SVG/1.1/DTD/svg11.dtd"><svg t="1754764271170" class="icon" viewBox="0 0 1024 1024" version="1.1" xmlns="http://www.w3.org/2000/svg" p-id="6261" xmlns:xlink="http://www.w3.org/1999/xlink" width="200" height="200"><path d="M512 256 512 384 682.666667 213.333333 512 42.666667 512 170.666667C323.413333 170.666667 170.666667 323.413333 170.666667 512 170.666667 578.986667 190.293333 641.28 223.573333 693.76L285.866667 631.466667C266.666667 596.053333 256 554.666667 256 512 256 370.773333 370.773333 256 512 256M800.426667 330.24 738.133333 392.533333C756.906667 428.373333 768 469.333333 768 512 768 653.226667 653.226667 768 512 768L512 640 341.333333 810.666667 512 981.333333 512 853.333333C700.586667 853.333333 853.333333 700.586667 853.333333 512 853.333333 445.013333 833.706667 382.72 800.426667 330.24Z" p-id="6262"></path></svg>